<?xml version="1.0" encoding="UTF-8" standalone="no"?><!DOCTYPE svg PUBLIC "-//W3C//DTD SVG 1.1//EN" "http://www.w3.org/Graphics/SVG/1.1/DTD/svg11.dtd"><svg width="100%" height="100%" viewBox="0 0 275 80" version="1.1" xmlns="http://www.w3.org/2000/svg" xmlns:xlink="http://www.w3.org/1999/xlink" xml:space="preserve" style="fill-rule:evenodd;clip-rule:evenodd;stroke-linejoin:round;stroke-miterlimit:1.41421;"><rect id="Artboard1" x="0" y="0" width="84.676" height="79.453" style="fill:none;"/><path d="M83.009,13.322l-5.2,-6.12c-0.127,-0.148 -0.275,-0.276 -0.44,-0.38c-0.341,-0.336 -0.792,-0.538 -1.27,-0.57l-72.89,-5.22c-0.048,-0.004 -0.097,-0.005 -0.146,-0.005c-1.097,0 -2,0.902 -2,2c0,0.051 0.002,0.103 0.006,0.155l3.68,48.7l0,0.33c0.024,0.092 0.054,0.182 0.09,0.27l0,0.08l3.23,7.16c0.29,0.638 0.894,1.079 1.59,1.16l1.61,0.19l-4.64,8.9c-0.245,0.34 -0.377,0.749 -0.377,1.168c0,0.793 0.471,1.514 1.197,1.832l5.56,4.62c1.293,1.099 3.172,1.206 4.58,0.26l5.45,-3.34l18.59,-11.34c1.49,-0.864 3.222,-1.215 4.93,-1l0.11,0l22.67,1.62c3.501,0.249 6.693,-2.118 7.47,-5.54l0,-0.1l3.66,-22.5l3.16,-19.46c0.168,-0.854 0.037,-1.741 -0.37,-2.51c-0.07,-0.129 -0.154,-0.25 -0.25,-0.36l0,0Zm-74.38,36.54l-3.4,-44.67l68.29,4.86l-0.89,4.2l-1.4,6.51l-6.1,28.59l-18.23,-1.3l-7.4,-0.53l-0.31,0l-0.29,0l-0.07,0c-0.12,0.032 -0.238,0.076 -0.35,0.13l-0.08,0l-0.17,0.1l-24.29,17l2.33,-4.47l3.6,-6.92c0.149,-0.286 0.227,-0.603 0.227,-0.925c0,-1.044 -0.816,-1.92 -1.857,-1.995l-9.61,-0.58l0,0Zm2.74,7.21l-1.4,-3.1l5,0.35l-1.55,3l-2.05,-0.25l0,0Zm4.26,17.39l-3.89,-3.21l3.8,-2.65l3.45,3.77l-3.36,2.09Zm6.83,-4.21l-3.62,-4l3.13,-2.19l3.43,4.33l-2.94,1.86l0,0Zm6.38,-3.91l-3.58,-4.52l2.89,-2l3.26,5l-2.57,1.52l0,0Zm6,-3.67l-3.4,-5.16l2.4,-1.68l3.2,5.48l-2.2,1.36Zm5.63,-3.42l-3.36,-5.75l1.49,-1l3.15,6.27c-0.435,0.135 -0.863,0.296 -1.28,0.48l0,0Zm6.55,-1.09c-0.37,0 -0.74,-0.07 -1.11,-0.08l-3.19,-6.35l2.6,0.18l2.2,6.34l-0.5,-0.09l0,0Zm4.84,0.35l-2.23,-6.26l2.68,0.19l2.22,6.27l-2.67,-0.2l0,0Zm7.05,0.5l-2.22,-6.28l3.31,0.24l1.77,6.28l-2.86,-0.24l0,0Zm7.09,0.51l-1.74,-6.27l1.27,0.09l3.74,6.39l-3.27,-0.21l0,0Zm6.87,-2.13c-0.034,0.136 -0.077,0.27 -0.13,0.4l-3.92,-6.68l0.63,-2.86l4.1,5.06l-0.68,4.08l0,0Zm1.52,-9.39l-3.87,-4.75l0.61,-2.84l3.86,4l-0.6,3.59l0,0Zm1.39,-8.54l-3.66,-3.82l0.65,-3.06l3.56,3.42l-0.55,3.46l0,0Zm1.35,-8.21l-3.36,-3.23l0.57,-2.69l3.2,3.36l-0.41,2.56l0,0Zm1.22,-7.51l-3,-3.14l0.41,-1.91l2.93,2.93l-0.34,2.12Zm1.13,-7l-2.72,-2.73l0.32,-1.5l2.55,3.05l-0.15,1.18l0,0Z" style="fill:#fff;fill-rule:nonzero;"/><path d="M52.659,27.988l-24.083,-13.905c-0.485,-0.28 -0.998,-0.28 -1.484,0c-0.485,0.28 -0.699,0.798 -0.699,1.358l0,27.81c0,0.56 0.214,1.078 0.699,1.358c0.243,0.14 0.471,0.21 0.742,0.21c0.271,0 0.52,-0.07 0.763,-0.21l24.073,-13.905c0.485,-0.28 0.779,-0.798 0.779,-1.358c0,-0.56 -0.305,-1.078 -0.79,-1.358l0,0Z" style="fill:#fff;fill-rule:nonzero;"/><path d="M124.467,26.063l0,18.218l9.109,0c1.248,0 2.422,-0.238 3.523,-0.714c1.1,-0.476 2.063,-1.127 2.888,-1.952c0.825,-0.825 1.476,-1.793 1.952,-2.904c0.476,-1.111 0.714,-2.29 0.714,-3.539c0,-1.248 -0.238,-2.428 -0.714,-3.539c-0.476,-1.11 -1.127,-2.078 -1.952,-2.904c-0.825,-0.825 -1.788,-1.475 -2.888,-1.952c-1.101,-0.476 -2.275,-0.714 -3.523,-0.714l-9.109,0Zm0,36.404l-9.109,0l0,-45.513l18.218,0c1.671,0 3.279,0.217 4.824,0.651c1.544,0.434 2.989,1.047 4.332,1.841c1.344,0.793 2.571,1.746 3.682,2.856c1.111,1.111 2.063,2.344 2.856,3.698c0.794,1.354 1.407,2.803 1.841,4.348c0.434,1.545 0.651,3.153 0.651,4.824c0,2.497 -0.476,4.851 -1.429,7.062c-0.952,2.211 -2.253,4.142 -3.903,5.792c-1.651,1.651 -3.582,2.952 -5.793,3.904c-2.211,0.952 -4.565,1.428 -7.061,1.428l-9.109,0l0,9.109Z" style="fill:#fff;fill-rule:nonzero;"/><path d="M188.959,62.467l-31.865,0l0,-45.513l9.109,0l0,36.404l22.756,0l0,9.109Z" style="fill:#fff;fill-rule:nonzero;"/><path d="M220.475,44.281l0,-9.109c0,-1.248 -0.238,-2.428 -0.714,-3.539c-0.476,-1.11 -1.127,-2.078 -1.952,-2.904c-0.825,-0.825 -1.793,-1.475 -2.904,-1.952c-1.111,-0.476 -2.29,-0.714 -3.539,-0.714c-1.248,0 -2.428,0.238 -3.539,0.714c-1.111,0.477 -2.079,1.127 -2.904,1.952c-0.825,0.826 -1.476,1.794 -1.952,2.904c-0.476,1.111 -0.714,2.291 -0.714,3.539l0,9.109l18.218,0Zm9.109,18.186l-9.109,0l0,-9.109l-18.218,0l0,9.109l-9.077,0l0,-27.295c0,-2.518 0.476,-4.882 1.428,-7.093c0.952,-2.211 2.248,-4.142 3.888,-5.793c1.64,-1.65 3.566,-2.951 5.777,-3.903c2.211,-0.952 4.575,-1.429 7.093,-1.429c2.518,0 4.883,0.477 7.094,1.429c2.211,0.952 4.141,2.253 5.792,3.903c1.65,1.651 2.952,3.582 3.904,5.793c0.952,2.211 1.428,4.575 1.428,7.093l0,27.295Z" style="fill:#fff;fill-rule:nonzero;"/><path d="M257.45,62.467l-9.077,0l0,-14.25c-2.01,-0.508 -3.856,-1.323 -5.538,-2.444c-1.682,-1.122 -3.127,-2.46 -4.333,-4.015c-1.206,-1.555 -2.142,-3.28 -2.808,-5.173c-0.667,-1.894 -1,-3.888 -1,-5.983l0,-13.648l9.109,0l0,13.648c0,1.248 0.238,2.428 0.714,3.539c0.476,1.111 1.126,2.079 1.952,2.904c0.825,0.825 1.793,1.476 2.904,1.952c1.111,0.476 2.29,0.714 3.539,0.714c1.248,0 2.428,-0.238 3.538,-0.714c1.111,-0.476 2.079,-1.127 2.904,-1.952c0.826,-0.825 1.476,-1.793 1.952,-2.904c0.476,-1.111 0.714,-2.291 0.714,-3.539l0,-13.648l9.078,0l0,13.648c0,2.095 -0.334,4.089 -1,5.983c-0.667,1.893 -1.603,3.618 -2.809,5.173c-1.206,1.555 -2.645,2.893 -4.316,4.015c-1.672,1.121 -3.513,1.936 -5.523,2.444l0,14.25Z" style="fill:#fff;fill-rule:nonzero;"/></svg>