<?xml version="1.0" encoding="UTF-8" standalone="no"?><!DOCTYPE svg PUBLIC "-//W3C//DTD SVG 1.1//EN" "http://www.w3.org/Graphics/SVG/1.1/DTD/svg11.dtd"><svg width="100%" height="100%" viewBox="0 0 85 80" version="1.1" xmlns="http://www.w3.org/2000/svg" xmlns:xlink="http://www.w3.org/1999/xlink" xml:space="preserve" style="fill-rule:evenodd;clip-rule:evenodd;stroke-linejoin:round;stroke-miterlimit:1.41421;"><rect id="Artboard1" x="0" y="0" width="84.676" height="79.453" style="fill:none;"/><path d="M83.009,13.322l-5.2,-6.12c-0.127,-0.148 -0.275,-0.276 -0.44,-0.38c-0.341,-0.336 -0.792,-0.538 -1.27,-0.57l-72.89,-5.22c-0.048,-0.004 -0.097,-0.005 -0.146,-0.005c-1.097,0 -2,0.902 -2,2c0,0.051 0.002,0.103 0.006,0.155l3.68,48.7l0,0.33c0.024,0.092 0.054,0.182 0.09,0.27l0,0.08l3.23,7.16c0.29,0.638 0.894,1.079 1.59,1.16l1.61,0.19l-4.64,8.9c-0.245,0.34 -0.377,0.749 -0.377,1.168c0,0.793 0.471,1.514 1.197,1.832l5.56,4.62c1.293,1.099 3.172,1.206 4.58,0.26l5.45,-3.34l18.59,-11.34c1.49,-0.864 3.222,-1.215 4.93,-1l0.11,0l22.67,1.62c3.501,0.249 6.693,-2.118 7.47,-5.54l0,-0.1l3.66,-22.5l3.16,-19.46c0.168,-0.854 0.037,-1.741 -0.37,-2.51c-0.07,-0.129 -0.154,-0.25 -0.25,-0.36Zm-74.38,36.54l-3.4,-44.67l68.29,4.86l-0.89,4.2l-1.4,6.51l-6.1,28.59l-18.23,-1.3l-7.4,-0.53l-0.31,0l-0.29,0l-0.07,0c-0.12,0.032 -0.238,0.076 -0.35,0.13l-0.08,0l-0.17,0.1l-24.29,17l2.33,-4.47l3.6,-6.92c0.149,-0.286 0.227,-0.603 0.227,-0.925c0,-1.044 -0.816,-1.92 -1.857,-1.995l-9.61,-0.58Zm2.74,7.21l-1.4,-3.1l5,0.35l-1.55,3l-2.05,-0.25Zm4.26,17.39l-3.89,-3.21l3.8,-2.65l3.45,3.77l-3.36,2.09Zm6.83,-4.21l-3.62,-4l3.13,-2.19l3.43,4.33l-2.94,1.86Zm6.38,-3.91l-3.58,-4.52l2.89,-2l3.26,5l-2.57,1.52Zm6,-3.67l-3.4,-5.16l2.4,-1.68l3.2,5.48l-2.2,1.36Zm5.63,-3.42l-3.36,-5.75l1.49,-1l3.15,6.27c-0.435,0.135 -0.863,0.296 -1.28,0.48l0,0Zm6.55,-1.09c-0.37,0 -0.74,-0.07 -1.11,-0.08l-3.19,-6.35l2.6,0.18l2.2,6.34l-0.5,-0.09Zm4.84,0.35l-2.23,-6.26l2.68,0.19l2.22,6.27l-2.67,-0.2Zm7.05,0.5l-2.22,-6.28l3.31,0.24l1.77,6.28l-2.86,-0.24Zm7.09,0.51l-1.74,-6.27l1.27,0.09l3.74,6.39l-3.27,-0.21Zm6.87,-2.13c-0.034,0.136 -0.077,0.27 -0.13,0.4l-3.92,-6.68l0.63,-2.86l4.1,5.06l-0.68,4.08Zm1.52,-9.39l-3.87,-4.75l0.61,-2.84l3.86,4l-0.6,3.59Zm1.39,-8.54l-3.66,-3.82l0.65,-3.06l3.56,3.42l-0.55,3.46Zm1.35,-8.21l-3.36,-3.23l0.57,-2.69l3.2,3.36l-0.41,2.56Zm1.22,-7.51l-3,-3.14l0.41,-1.91l2.93,2.93l-0.34,2.12Zm1.13,-7l-2.72,-2.73l0.32,-1.5l2.55,3.05l-0.15,1.18Z" style="fill:#fff;fill-rule:nonzero;"/><path d="M52.659,27.988l-24.083,-13.905c-0.485,-0.28 -0.998,-0.28 -1.484,0c-0.485,0.28 -0.699,0.798 -0.699,1.358l0,27.81c0,0.56 0.214,1.078 0.699,1.358c0.243,0.14 0.471,0.21 0.742,0.21c0.271,0 0.52,-0.07 0.763,-0.21l24.073,-13.905c0.485,-0.28 0.779,-0.798 0.779,-1.358c0,-0.56 -0.305,-1.078 -0.79,-1.358Z" style="fill:#fff;fill-rule:nonzero;"/></svg>