<svg version="1" xmlns="http://www.w3.org/2000/svg" width="682.667" height="682.667" viewBox="0 0 512.000000 512.000000"><path d="M77.5 39.9c-5.6 2.8-7 4.1-9.7 9.1l-2.3 4.5-.2 200.7c-.1 135.3.1 201.9.8 204.5 2.7 9.7 10.3 15.3 20.5 14.9 5.5-.2 7.3-.9 16.8-6.5 5.9-3.4 12.1-7 13.9-8 1.8-1 10.6-6.1 19.7-11.3 9.1-5.3 18.1-10.5 20-11.5l38-22c19-11 43.6-25.2 54.7-31.6 11.1-6.4 21.7-12.6 23.5-13.7 1.8-1.1 4-2.3 4.8-2.7.8-.3 3.1-1.6 5-2.8 1.9-1.2 12.7-7.5 24-14s26.4-15.2 33.5-19.3c7.2-4.2 21.3-12.3 31.5-18.2 10.2-5.8 28.9-16.6 41.5-23.9 12.7-7.3 24.7-14.9 26.7-16.8 7-6.8 8.2-17 3.2-26.3-1.5-2.7-3.1-5-3.5-5-.4 0-1.4-.6-2.2-1.4-1.2-1.3-18.2-11.2-49.7-29.3-5.2-2.9-10.2-5.8-11-6.3-1.9-1.2-28.1-16.3-38-22-8-4.5-8.5-4.8-22.5-13-4.9-2.9-10.6-6.2-12.5-7.2-1.9-1.1-34.1-19.7-71.5-41.3-37.4-21.5-69.3-40-71-40.9-1.6-.9-4.6-2.6-6.5-3.7-3.9-2.4-28.6-16.7-49-28.4-11.5-6.7-14.3-7.9-19-8.2-4-.3-6.6.2-9.5 1.6z"/></svg>