<svg version="1" xmlns="http://www.w3.org/2000/svg" width="682.667" height="682.667" viewBox="0 0 512.000000 512.000000"><path d="M13.5 22.9c-7.5 3.4-7.9 6-5 38.6.2 2.7.7 8.8 1 13.5.3 4.7.8 10.7 1 13.5.8 9.4 1.5 18 2 26.5.3 4.7.7 10.3 1 12.5.2 2.2.7 7.8 1 12.5.3 4.7.8 11.4 1.1 15 .2 3.6.7 9.4.9 13 1 14 1.5 20.7 2 26 .3 3 .7 8.9 1 13 .3 4.1.8 10 1 13 .3 3 .7 9.3 1 14 .4 4.7.8 10.5 1 13 .7 8.2 2.1 26.5 3 40.5.3 4.4.7 10 1 12.5.2 2.5.7 8.8 1.1 14 .3 5.2.7 11.1.9 13.1.3 3.4 2.5 9 10 25.3 1.8 3.9 4.7 10.5 6.5 14.6 5.9 13.4 7.3 14.4 22.2 15.9.4.1-.8 2.9-2.6 6.4-1.8 3.4-6.6 12.5-10.6 20.2-4 7.7-9.2 17.7-11.6 22.2-4.4 8.3-5.5 13.5-3.4 17.2.5 1 4.2 4.4 8.2 7.6 4 3.3 7.5 6.1 7.8 6.5 2.1 2.3 24.6 20.4 27.4 21.9 4.3 2.5 11.7 3.4 16.5 2.1 2-.5 10.1-4.9 18.1-9.8 8-4.9 36.1-22 62.5-38.2 26.4-16.1 49.4-30.1 51-31 1.7-1 7.9-4.7 13.8-8.3 5.9-3.6 13.4-7.4 16.5-8.3 7.6-2.3 21.4-2.2 48.2.1 4.2.4 7.6.6 28 2 4.1.3 9.8.8 12.5 1 2.8.3 8.8.7 13.5 1 4.7.3 11.4.8 15 1 3.6.3 10.6.7 15.5 1.1 5 .3 11 .7 13.5 1 22.7 2 35-1.8 45.9-14.2 6.9-7.9 9.4-14.5 11.7-31.4.3-2.5.8-5.4 1-6.5.3-1.1.7-3.6 1-5.5.3-1.9.7-4.6 1-6 .2-1.4.7-4.1 1-6 .3-1.9.9-6 1.4-9 .5-3 1.2-6.9 1.4-8.5.3-1.7 1.6-9.8 3-18 1.4-8.3 2.8-17 3.1-19.5.3-2.5.8-5.2 1-6 .2-.8.7-3.5 1-6 .3-2.5 1.3-8.6 2.1-13.5.8-5 1.7-10.1 1.9-11.5.2-1.4 1.8-11.1 3.6-21.5 1.7-10.5 3.2-19.9 3.4-21 .4-3.3 1.5-10.1 4.6-29 3.5-21.5 3.7-22.5 4.9-29.5.5-3 1.2-7.5 1.5-10 .4-2.4.8-4.7 1.1-5.1.2-.4.6-4.2 1-8.6.9-11.5-.4-14-20.4-36.8-1-1.1-4.2-4.9-7.2-8.5-6.9-8.2-10.9-12-13.8-13.1-2.5-1-6.9-1.5-20.7-2.4-4.9-.3-10.8-.8-13-.9-2.2-.2-8.7-.7-14.5-1.1-5.8-.3-12.5-.8-15-1-5.3-.5-17.5-1.3-28-2-4.1-.3-10.2-.7-13.5-1-3.3-.3-9.3-.7-13.2-1-15.6-1.1-22-1.5-27.8-2-6-.5-14.3-1-28.5-2-4.1-.3-10.2-.7-13.5-1-7.2-.5-17.9-1.3-29.5-2-4.7-.4-10.7-.8-13.5-1-2.7-.2-8.8-.7-13.5-1-4.7-.3-10.7-.8-13.5-1-2.7-.3-9.3-.7-14.5-1-5.2-.3-11.5-.8-13.8-1-2.4-.3-9-.7-14.5-1-5.6-.3-11.5-.8-13.2-1-1.6-.2-7.9-.7-14-1-6-.3-12.6-.8-14.5-1-1.9-.2-8-.7-13.5-1-5.5-.3-12-.8-14.5-1-2.5-.3-8.3-.7-13-1-9.3-.6-18.2-1.2-27.5-2-3.3-.2-10-.7-15-1-4.9-.4-11.2-.8-14-1-3.4-.3-6.3.1-9 1.4zM47 47.5c5.2.3 11.8.7 14.5 1 5.5.4 18.3 1.3 28.5 2 13.8 1 22.7 1.6 27.5 2 2.8.2 9.1.6 14 1 5 .3 11.3.8 14 1 2.8.2 9.1.7 14 1 5 .3 11 .7 13.5 1 2.5.2 9.2.7 15 1 5.8.4 12.1.8 14 1 1.9.2 8.2.6 14 1 5.8.4 12.1.8 14.1 1 3.3.2 13.9 1 28.9 2 5.2.4 12.8.9 28 2 3.6.3 10.1.7 14.5 1 4.4.3 10.3.7 13 1 2.8.3 9.1.7 14 1 5 .3 11.7.8 15 1 3.3.3 9.4.7 13.5 1 17.6 1.3 20.9 1.5 27.5 2 3.9.3 10.4.7 14.5 1 4.1.3 10.2.7 13.5 1 14.8 1.1 24.2 1.8 27 1.9 2 .1 2.9.6 2.8 1.6-.2 1.2-2.1 10.5-6.9 33.5-.2 1.1-2.9 13.7-6 28s-5.7 26.7-5.9 27.5c-.2.8-1.9 9.1-4 18.5-2 9.3-3.9 18.1-4.1 19.5-.3 1.4-1.8 8.6-3.4 16-1.6 7.4-3.1 14.6-3.4 16-.2 1.4-1.3 6.5-2.5 11.5-1.8 8.3-6.6 30.6-7.7 36.5-.3 1.4-1.7 7.7-3.1 14-1.4 6.3-2.5 12.1-2.6 12.8 0 1.4-4.5 1.3-26.2-.3-2.7-.2-9-.7-14-1-4.9-.4-11-.8-13.5-1-2.5-.2-9-.6-14.5-1-5.5-.3-12-.7-14.5-1-2.5-.2-8.1-.7-12.5-1-18.6-1.2-35.6-2.4-42.5-3-3-.2-9.1-.7-13.5-1l-8-.6-6 3.9c-3.3 2.2-36.6 25.4-74 51.5-37.3 26.2-68.1 47.5-68.3 47.3-.3-.4 5-10.9 16.8-33.1 13.2-24.8 19-36.9 19-39.2 0-4.1-2.9-9-6.3-10.6-1.8-.9-7.2-1.8-12.2-2.2-17.3-1.2-21.1-1.4-32.5-2.1-16-.8-16.8-.9-17.5-1.5-.6-.7-1.2-5.9-2-17.9-.3-4.7-.7-10.8-1-13.5-.2-2.8-.7-9.3-1.1-14.5-.4-5.2-.8-10.9-.9-12.5-.1-1.7-.6-7.1-.9-12-1.2-16.3-1.6-21.9-2.1-28-.3-3.3-.7-9.2-1-13-.3-3.9-.8-10.2-1.1-14-.3-3.9-.7-9-.9-11.5-.6-7.7-1.7-22.3-2-28-.2-3-.6-8.4-1-12-.3-3.6-.8-9.4-1-13-.3-3.6-.7-9.7-1-13.5-1.2-15.1-1.4-18.3-2-26.5-.3-4.7-.8-10.3-1-12.5-.2-2.2-.7-8.3-1-13.5-.4-5.2-.8-9.7-1.1-9.9-1-1 2-3 4-2.6 1.1.2 6.4.7 11.6 1zm426.3 53.6c6 7.3 6.3 8 5.9 11-.2 1.6-.7 2.9-1.1 2.9-.3 0-3.9-3.4-7.9-7.5-7.9-8-7.7-7.5-6.2-16.5.1-.6 3.7 3.4 9.3 10.1zm.1 48.2c-.3 2.1-.7 4.5-.9 5.5-.2.9-.4 2.1-.4 2.5-.1.4-1.5-.7-3.2-2.5-1.7-1.8-5.8-6-9-9.3l-5.9-6.1 1.1-5.8 1.2-5.8 8.9 8.9c8.7 8.6 8.9 8.9 8.2 12.6zm-15.9 28.4l9.5 9.8-.6 4.5c-.3 2.5-.9 6-1.3 7.8l-.6 3.2-10.1-9.5-10.2-9.5 1-4.3c1.5-6.7 2-9.1 2.1-10.5 0-.6.2-1.2.3-1.2.2 0 4.6 4.4 9.9 9.7zm-15.5 37c1.5 1.6 6 5.9 10 9.8 7.5 7.2 8 8.2 6.6 15-.2 1.1-.7 4.4-1.1 7.2-.4 2.9-1 5.3-1.2 5.3-.3 0-5.4-5-11.3-11.2-10.2-10.6-10.7-11.3-9.9-14.2.4-1.7 1.3-5.7 1.9-8.9.6-3.1 1.4-5.7 1.7-5.7.3 0 1.8 1.2 3.3 2.7zm-1.3 56.2l11.1 11.7-.9 4.9c-.6 2.8-1.2 6.8-1.5 9-1.1 7.6-1.5 7.4-13.3-6.9l-11.2-13.7 1.7-8.4c.9-4.7 1.9-8.4 2.3-8.4.3.1 5.6 5.4 11.8 11.8zm-16.9 41.6c.9 1.1 3.5 4.3 5.7 7 5.2 6.5 6.6 8.2 8.9 10.8 4.7 5.5 4.7 5.4 2.4 19-1.2 7-2.4 12.7-2.8 12.7-.6 0-9-13.9-18.3-30.5-1.6-2.7-3.4-5.6-3.9-6.3-1.1-1.2-.7-4.8 1.3-14.4l1.2-5.2 1.9 2.4c1.1 1.4 2.7 3.4 3.6 4.5zm-151.4 15.9c1.1.9 8 19.7 12.2 33.3l1.3 4.2-4.7-.6c-2.6-.3-4.8-.6-4.8-.7-.1 0-4.4-8.6-9.6-18.9l-9.5-18.8 6.9.2c3.8.1 7.4.7 8.2 1.3zm42.8 3.4c.3.4 1.5 3.4 2.6 6.7 1.1 3.3 3.9 11.2 6.1 17.5 2.3 6.3 4.1 11.7 4.1 12.1 0 .4-1.5.5-3.2.3-1.8-.1-5.2-.4-7.6-.5-4.7-.3-5-.7-7.5-7.9-.9-2.5-3.6-10.3-6.2-17.4l-4.5-12.9 7.7.7c4.3.4 8.1 1 8.5 1.4zM242 350c5 10 8.8 18.5 8.5 18.9-.3.5-1.9 1.4-3.5 2-2.6.9-3.2.7-4.4-1.2-.7-1.2-3-4.8-5-8-2-3.1-3.6-6-3.6-6.3 0-.3-2.2-4.2-5-8.8-2.7-4.6-5-8.6-5-8.9 0-.8 7.2-5.7 8.2-5.7.4 0 4.9 8.1 9.8 18zm110-16.5c4.7.4 8.8 1 9.1 1.3.4.4 2.8 8.1 5.3 17.2 2.6 9.1 4.9 17.2 5.2 18.2.4 1.5-.4 1.6-7.8 1.1-4.6-.3-8.5-.7-8.7-.8-.6-.6-12-32.8-12.7-35.9-.3-1.6-.2-2.6.2-2.3.5.3 4.7.8 9.4 1.2zm44.2 5.7c.7 1.5 1.6 2.8 2 2.8.5 0 .8.4.8.9s3.4 6.7 7.6 13.8c4.2 7 8.2 14 9 15.5l1.4 2.7-8.8-.5c-4.8-.3-9.1-.7-9.7-.9-.5-.1-1.5-2.2-2.2-4.6-.7-2.4-2.6-9.1-4.2-14.9-1.6-5.8-3.4-12.2-3.9-14.3l-1.1-3.8 4 .3c3.2.2 4.1.7 5.1 3zm-317.8 2.3c5.5.4 10.3.8 10.7 1.1.5.2-1.2 4.2-3.6 8.7l-4.4 8.2-4.3-.1c-8.4-.2-8.4-.2-10-4.2-.9-2-2.7-6.3-4.2-9.5l-2.6-5.8 4.3.6c2.3.2 8.7.7 14.1 1zm135.4 27c5.1 8.7 9.1 15.9 9 16-2 1.5-12 7.5-12.6 7.5-.4 0-1.7-1.5-2.8-3.3-19.3-29.1-17.9-26.6-15.8-28.5 3.5-3.3 10.9-8.1 11.9-7.8.6.1 5.2 7.4 10.3 16.1zm-34.3 22.1c5.3 8 9.5 14.7 9.3 14.9-1.3 1.2-14 8.5-14.7 8.5-.5 0-4.2-4.2-8.2-9.3-4-5-8.7-11-10.5-13.2l-3.2-4 8.1-5.8c4.5-3.1 8.5-5.7 8.8-5.7.4 0 5 6.6 10.4 14.6zm-46.2 11.7c.7.7 2.8 3.3 4.7 5.7 1.9 2.5 4 5.2 4.7 6 .6.8 3.2 4.1 5.7 7.2l4.6 5.7-6.9 4.4c-11.8 7.7-9.6 8.2-21.5-4.9-5.8-6.5-10.6-12-10.5-12.3 0-.5 16.7-12.7 17.7-13 .2-.1.9.5 1.5 1.2zm-34.5 31.4c2.2 2.7 6.6 7.5 9.6 10.8 3.1 3.3 5.6 6.2 5.6 6.5-.1.7-8.9 6-10.1 6-.5 0-.9.3-.9.8 0 .4-2 1.8-4.5 3.1-3.9 2-4.7 2.2-6.2 1-1.5-1.2-18.2-14.9-20.6-17-.9-.7 20-15.9 21.9-15.9.5 0 2.9 2.1 5.2 4.7z"/><path d="M163.2 99.7c-.7.3-1.9 1.8-2.7 3.3-1.3 2.5-1.5 15-1.5 89.5v86.7l2.9 2.9c3.9 3.9 6.9 3.7 14.4-.7 3.4-2 7.7-4.5 9.5-5.6 8.2-4.6 17.6-10 29.1-16.6 6.8-4 12.6-7.2 12.9-7.2.3 0 1.3-.6 2.1-1.4.9-.7 4.1-2.7 7.1-4.4 3-1.6 13.8-7.8 24-13.7 10.2-5.9 19.9-11.6 21.6-12.5 38.3-21.9 39.4-22.7 39.4-27.9 0-2-1-4.1-2.7-6-2.1-2.3-78.8-47.3-123.6-72.6-2.3-1.3-8.9-5.1-14.7-8.4-9.9-5.8-13.9-7-17.8-5.4z"/></svg>